HIERARCHY
ROOT Hips
{
	OFFSET -3.958830 18.904000 13.208200
	CHANNELS 6 Xposition Yposition Zposition Zrotation Yrotation Xrotation 
	JOINT LHipJoint
	{
		OFFSET 0.000000 0.000000 0.000000
		CHANNELS 3 Zrotation Yrotation Xrotation
		JOINT LeftUpLeg
		{
			OFFSET 1.800000 -1.400000 0.085000
			CHANNELS 3 Zrotation Yrotation Xrotation
			JOINT LeftLeg
			{
				OFFSET 2.215000 -6.000000 0.000000
				CHANNELS 3 Zrotation Yrotation Xrotation
				JOINT LeftFoot
				{
					OFFSET 2.500000 -6.900000 0.000000
					CHANNELS 3 Zrotation Yrotation Xrotation
					JOINT LeftToeBase
					{
						OFFSET 0.200000 -0.500000 1.950000
						CHANNELS 3 Zrotation Yrotation Xrotation
						End Site
						{
							OFFSET 0.000000 0.000000 0.000000
						}
					}
				}
			}
		}
	}
	JOINT RHipJoint
	{
		OFFSET 0.000000 0.000000 0.000000
		CHANNELS 3 Zrotation Yrotation Xrotation
		JOINT RightUpLeg
		{
			OFFSET -1.800000 -1.400000 0.085000
			CHANNELS 3 Zrotation Yrotation Xrotation
			JOINT RightLeg
			{
				OFFSET -2.215000 -6.000000 0.000000
				CHANNELS 3 Zrotation Yrotation Xrotation
				JOINT RightFoot
				{
					OFFSET -2.500000 -6.900000 0.000000
					CHANNELS 3 Zrotation Yrotation Xrotation
					JOINT RightToeBase
					{
						OFFSET -0.200000 -0.500000 1.950000
						CHANNELS 3 Zrotation Yrotation Xrotation
						End Site
						{
							OFFSET 0.000000 0.000000 0.000000
						}
					}
				}
			}
		}
	}
	JOINT LowerBack
	{
		OFFSET 0.000000 0.000000 0.000000
		CHANNELS 3 Zrotation Yrotation Xrotation
		JOINT Spine
		{
			OFFSET -0.087000 1.940000 -0.288900
			CHANNELS 3 Zrotation Yrotation Xrotation
			JOINT Spine1
			{
				OFFSET 0.000000 1.950000 0.060000
				CHANNELS 3 Zrotation Yrotation Xrotation
				JOINT Neck
				{
					OFFSET 0.000000 0.000000 0.000000
					CHANNELS 3 Zrotation Yrotation Xrotation
					JOINT Neck1
					{
						OFFSET 0.000000 1.600000 0.340000
						CHANNELS 3 Zrotation Yrotation Xrotation
						JOINT Head
						{
							OFFSET 0.000000 1.667000 -0.240000
							CHANNELS 3 Zrotation Yrotation Xrotation
							End Site
							{
								OFFSET 0.000000 0.000000 0.000000
							}
						}
					}
				}
				JOINT LeftShoulder
				{
					OFFSET 0.000000 0.000000 0.000000
					CHANNELS 3 Zrotation Yrotation Xrotation
					JOINT LeftArm
					{
						OFFSET 2.700000 1.550000 -0.730000
						CHANNELS 3 Zrotation Yrotation Xrotation
						JOINT LeftForeArm
						{
							OFFSET 5.450000 0.000000 0.000000
							CHANNELS 3 Zrotation Yrotation Xrotation
							JOINT LeftHand
							{
								OFFSET 3.450000 0.000000 0.000000
								CHANNELS 3 Zrotation Yrotation Xrotation
								JOINT LeftHandIndex1
								{
									OFFSET 0.750000 0.000000 0.000000
									CHANNELS 3 Zrotation Yrotation Xrotation
									End Site
									{
										OFFSET 0.000000 0.000000 0.000000
									}
								}
							}
						}
					}
				}
				JOINT RightShoulder
				{
					OFFSET 0.000000 0.000000 0.000000
					CHANNELS 3 Zrotation Yrotation Xrotation
					JOINT RightArm
					{
						OFFSET -2.700000 1.550000 -0.730000
						CHANNELS 3 Zrotation Yrotation Xrotation
						JOINT RightForeArm
						{
							OFFSET -5.450000 0.000000 0.000000
							CHANNELS 3 Zrotation Yrotation Xrotation
							JOINT RightHand
							{
								OFFSET -3.450000 0.000000 0.000000
								CHANNELS 3 Zrotation Yrotation Xrotation
								JOINT RightHandIndex1
								{
									OFFSET -0.750000 0.000000 0.000000
									CHANNELS 3 Zrotation Yrotation Xrotation
									End Site
									{
										OFFSET 0.000000 0.000000 0.000000
									}
								}
							}
						}
					}
				}
			}
		}
	}
}
MOTION
Frames: 12
Frame Time: 0.016667
0.098140 17.679680 -3.026910 -3.717194 35.086815 -7.901310 -15.671051 13.584250 4.267473 4.730384 -1.100332 9.713899 -13.619869 4.335264 -8.334699 0.517242 5.776031 2.744003 0.170880 0.094070 0.141600 17.925991 -10.491912 1.311601 -4.181611 -3.359197 -22.300455 -15.144723 -1.424067 21.815096 0.005533 -3.107560 3.189483 0.170760 0.077280 0.069060 -2.821739 -4.008907 -7.321203 5.126455 -5.926661 6.776734 10.696475 -8.501373 8.970048 -6.909421 7.173143 -11.143653 7.971839 -11.608689 28.851215 -1.543770 -8.896630 -3.391180 -3.526790 -20.880310 -0.294046 20.472224 -36.073996 -9.163980 46.986983 -22.612772 -9.313991 -4.046451 3.082426 -0.012100 0.139050 -0.115520 0.018670 17.185314 10.164707 10.404528 50.201574 -15.147689 -6.274299 -1.389630 3.034511 -0.219395 2.562913 -1.343518 -0.058830 0.060080 -0.007120 -0.079070 
0.105090 17.676260 -3.023190 -3.322826 34.286788 -7.464219 -15.673919 13.578546 4.252768 3.479325 -0.796700 9.965850 -12.495580 4.163731 -8.939786 0.492516 5.672827 2.777510 0.179570 0.107360 0.143220 17.942567 -10.458196 1.322208 -3.921149 -3.411759 -22.268253 -15.944993 -1.229734 20.572627 0.010102 -3.049715 3.213252 0.184990 0.084560 0.070950 -2.834815 -4.046821 -7.299940 5.366739 -5.954566 6.507646 11.046886 -8.626790 9.172338 -7.217809 6.942229 -11.095868 7.663284 -11.327533 28.356105 -1.646690 -8.689330 -3.726330 -3.062188 -20.893456 -0.344823 20.899402 -36.466784 -9.410201 46.969199 -22.627209 -9.389950 -4.062457 3.090427 -0.017360 0.147360 -0.120010 0.022480 17.319365 10.273855 10.342038 50.049020 -14.810071 -6.005588 -1.248377 2.506069 -0.198643 2.560433 -1.347769 -0.061510 0.066550 -0.007700 -0.079020 
0.121250 17.677290 -3.014240 -2.926357 31.848318 -7.121209 -15.670343 13.541346 4.283415 1.221139 -0.284300 10.873288 -10.357866 3.828338 -10.571774 0.486593 5.520236 2.812927 0.195170 0.130680 0.152590 17.979305 -10.354722 1.377707 -3.451231 -3.347052 -21.225417 -16.742877 -1.026289 17.300761 0.013540 -2.866187 3.287156 0.194750 0.065920 0.068820 -2.864582 -4.127571 -7.347764 6.509021 -5.830752 6.222933 11.819227 -8.699231 9.723282 -7.731839 5.978824 -11.188975 5.826781 -10.603342 28.964991 -1.877220 -8.269230 -4.273440 -2.600985 -21.240234 -0.402371 20.688661 -37.091990 -9.646390 45.755964 -22.341200 -9.200461 -4.057484 3.106920 -0.008620 0.133580 -0.105600 0.021120 17.851568 11.183413 10.670145 48.894628 -14.446255 -5.315947 -1.090891 0.916254 -0.061449 2.583987 -1.336670 -0.053740 0.065520 -0.013440 -0.081100 
0.124030 17.672500 -3.007480 -2.879576 29.320507 -6.852545 -15.646677 13.468849 4.266825 -0.919458 0.139629 11.187683 -7.913821 3.573633 -11.731051 0.450816 5.343257 2.859841 0.212640 0.155350 0.168130 18.039005 -10.255977 1.447863 -2.977773 -3.203368 -20.265104 -17.047170 -0.983921 14.367035 0.013735 -2.750895 3.332365 0.214470 0.061590 0.071790 -2.953356 -4.124379 -7.357076 8.040503 -5.544277 5.998482 12.557844 -8.718167 10.537912 -8.378163 5.582043 -11.123778 4.944402 -10.009112 29.388312 -2.206460 -7.556820 -4.502530 -1.210114 -21.516373 -0.760163 21.257119 -38.577406 -10.153709 42.038202 -21.387702 -8.312134 -4.061964 3.146623 -0.010220 0.137750 -0.100110 0.022050 17.662717 11.594917 10.783974 48.545011 -13.689170 -4.889301 -1.947638 0.683375 -0.004777 2.584353 -1.358118 -0.053220 0.067660 -0.020260 -0.085610 
0.122730 17.668750 -3.008940 -2.713802 25.602625 -6.520233 -15.610356 13.384895 4.267076 -3.002670 0.573674 11.244612 -6.030717 3.412894 -12.530896 0.410927 5.184255 2.897435 0.228730 0.177990 0.188070 18.097752 -10.187731 1.532782 -2.726804 -2.972334 -20.076286 -16.703855 -1.020788 12.135910 0.016872 -2.615340 3.381200 0.229890 0.049630 0.068320 -3.049178 -4.037259 -7.414921 9.642856 -4.787341 6.360106 13.626555 -8.284936 11.255878 -8.985384 5.031089 -11.157595 3.799879 -9.268272 30.024134 -2.415620 -6.757590 -5.240350 0.410488 -21.975422 -1.283869 22.246185 -39.608740 -10.432596 35.266054 -20.178746 -6.640648 -4.028225 3.185364 0.007400 0.129970 -0.083500 0.019250 17.179674 12.425114 11.215685 47.700263 -12.955925 -4.344898 -1.769367 -0.173542 0.063384 2.587843 -1.345252 -0.057790 0.080680 -0.024880 -0.095290 
0.112060 17.668860 -3.036110 -2.600980 22.054686 -6.188848 -15.564664 13.337311 4.234237 -4.621143 0.982947 10.428388 -4.677252 3.353118 -12.416498 0.345846 4.985314 2.952245 0.242720 0.195510 0.208680 18.142003 -10.185688 1.615029 -3.017292 -2.690829 -20.534435 -15.073598 -1.168595 10.755594 0.040118 -2.431691 3.442734 0.242870 0.039560 0.066130 -3.145665 -3.875208 -7.466121 10.937929 -3.824769 7.204214 14.949277 -7.665576 12.041438 -9.644022 4.847843 -11.341917 3.367639 -8.914281 30.393063 -2.607900 -6.115680 -5.921900 2.782937 -23.010813 -2.064890 23.200976 -40.540151 -10.415780 27.432433 -18.840707 -4.754728 -3.967667 3.235786 0.026120 0.123940 -0.067600 0.017420 16.022119 13.632504 11.912008 47.407423 -12.040584 -3.978850 -2.124419 -0.060178 0.086206 2.576778 -1.351805 -0.064470 0.093460 -0.030150 -0.105720 
0.109880 17.649590 -3.037520 -2.428129 20.314343 -5.659945 -15.547154 13.374007 4.197493 -5.733736 1.316498 9.343034 -4.071726 3.386165 -11.731706 0.295071 4.814840 3.005381 0.247360 0.209720 0.202830 18.147330 -10.205548 1.622458 -4.086323 -2.727991 -21.236147 -12.978533 -1.402796 10.260625 0.079006 -2.286243 3.493128 0.254890 0.046220 0.058500 -3.167573 -3.861609 -7.453836 11.360462 -3.425902 7.421372 16.828593 -7.634891 12.528076 -10.572654 4.551073 -11.525780 2.728577 -9.105067 30.354286 -2.510410 -6.359050 -6.053870 5.896551 -23.892163 -3.333944 22.088606 -41.782120 -9.179979 19.161006 -17.384259 -2.812881 -3.865853 3.317731 0.019160 0.125090 -0.070830 0.021740 14.712315 14.759789 12.723899 47.006698 -11.608166 -3.745030 -2.054572 0.841205 0.007639 2.552108 -1.365569 -0.065640 0.107220 -0.029950 -0.099090 
0.113590 17.628600 -3.025590 -2.430735 19.952214 -4.831228 -15.530331 13.413414 4.132697 -6.039731 1.384483 7.939744 -4.233414 3.395633 -11.010416 0.237723 4.688418 3.051915 0.253040 0.222590 0.198680 18.156664 -10.205763 1.607623 -5.365008 -2.806527 -21.893789 -10.573318 -1.698546 10.140300 0.113041 -2.187443 3.526471 0.271270 0.064210 0.054200 -3.209625 -3.905109 -7.387484 11.791300 -3.610804 6.966645 18.051344 -7.992854 12.558218 -11.398952 4.454707 -11.523456 2.486794 -9.095195 29.999332 -2.365190 -6.306550 -6.150270 9.230339 -24.580786 -5.026069 19.926274 -43.624431 -7.156776 10.240091 -16.993281 -0.764044 -3.713622 3.444418 0.009710 0.137320 -0.081440 0.028640 12.959604 15.465795 13.349857 47.638463 -11.245984 -3.916855 -2.693269 2.920515 -0.141202 2.505800 -1.400091 -0.073220 0.123590 -0.029030 -0.095120 
0.115380 17.601650 -3.013530 -2.304907 20.599705 -4.249869 -15.510828 13.536750 4.038202 -5.866720 1.512912 6.469886 -4.971554 3.590381 -9.352842 0.180577 4.579286 3.090525 0.255110 0.225800 0.198610 18.154923 -10.219028 1.581041 -6.897114 -3.139010 -22.358922 -8.397053 -2.062844 10.297801 0.130346 -2.153865 3.528452 0.278820 0.070670 0.052550 -3.265337 -4.088308 -7.314256 12.555704 -4.679715 6.708990 17.611596 -8.791126 12.217801 -11.575396 3.988383 -11.505732 1.574114 -8.922749 29.926959 -2.513920 -6.236470 -6.181200 10.147421 -25.816817 -6.438089 16.110692 -45.130782 -5.018322 4.398361 -16.687919 0.528727 -3.617811 3.528991 0.007190 0.140940 -0.085090 0.030970 12.321525 16.839871 14.156706 48.090086 -11.005852 -4.073111 -2.086280 4.530058 -0.279793 2.466219 -1.414202 -0.078260 0.131250 -0.028100 -0.094200 
0.082460 17.582910 -3.023190 -1.620552 18.923354 -3.767059 -15.505059 13.657143 4.027200 -6.051956 1.639479 5.422018 -6.071371 3.725721 -8.290737 0.162291 4.493811 3.108015 0.285400 0.267820 0.201010 18.139564 -10.169056 1.618801 -7.582708 -3.260994 -23.667020 -7.208486 -2.199994 10.564995 0.131194 -2.059878 3.545804 0.293740 0.050630 0.046890 -3.235417 -4.374565 -7.373119 12.579327 -5.072001 7.772944 17.156121 -8.735495 11.948133 -11.617488 2.664516 -11.443822 -0.950220 -8.066325 30.604761 -1.738090 -6.175200 -6.963780 8.949865 -27.348826 -7.652727 11.002152 -46.341913 -2.516003 -0.007147 -15.613718 1.421069 -3.539648 3.566037 0.022240 0.111740 -0.063600 0.043220 13.618655 19.343605 15.469145 47.372485 -10.975315 -3.979449 -1.462616 5.328163 -0.322504 2.441172 -1.424662 -0.062610 0.133050 -0.043370 -0.085550 
0.062620 17.580200 -3.027790 -1.265010 18.132178 -3.416815 -15.498919 13.844325 3.993515 -6.000870 1.739278 4.390906 -6.704297 3.944881 -6.816929 0.136781 4.411708 3.123776 0.307930 0.296900 0.211740 18.123616 -10.104545 1.638264 -8.084618 -3.449984 -24.243296 -6.247192 -2.351840 10.642956 0.122275 -1.991823 3.557137 0.299430 0.028470 0.043070 -3.222737 -4.806131 -7.403364 13.057086 -6.283678 8.617195 16.102055 -9.382501 11.483727 -11.342745 1.037865 -11.536498 -4.153760 -6.586477 31.465974 -1.373280 -5.503440 -7.773370 6.950190 -29.629316 -8.939061 3.039240 -46.804435 0.963978 -1.513567 -12.807581 1.414117 -3.544425 3.514876 0.044880 0.083250 -0.038180 0.047690 15.093367 22.435294 17.012156 46.285139 -10.559721 -3.768067 -0.678128 6.326396 -0.360188 2.411942 -1.429193 -0.051370 0.135700 -0.053760 -0.084430 
0.024180 17.561590 -3.028390 -0.627390 14.826862 -2.652123 -15.451992 13.867068 3.955328 -6.408853 1.806123 3.192102 -7.399001 4.054659 -5.728201 0.098786 4.303809 3.148331 0.323330 0.318080 0.213780 18.158003 -10.062323 1.759309 -7.804463 -3.206852 -25.902127 -5.942188 -2.293907 10.437483 0.126520 -1.878277 3.585608 0.305040 0.020440 0.044640 -3.286216 -4.875238 -7.489965 13.416711 -6.800752 9.549302 14.188270 -9.197182 11.141759 -10.415514 -0.761009 -11.730794 -7.464127 -4.344190 32.488923 -1.129020 -4.106650 -8.150160 3.939936 -30.688243 -8.362505 -5.146622 -46.581205 5.738361 -1.466255 -9.835259 1.091470 -3.704971 3.290765 0.064720 0.069690 -0.021360 0.053290 16.362249 24.506849 17.468930 44.943603 -8.887494 -3.438982 0.847853 7.406395 -0.414475 2.380602 -1.430486 -0.046860 0.137240 -0.056840 -0.085560 
